<?xml version="1.0" encoding="UTF-8"?>
<svg width="640" height="320" viewBox="0 0 640 320" xmlns="http://www.w3.org/2000/svg">
  <!-- Background -->
  <rect width="640" height="320" fill="#012169"/>
  
  <!-- Union Jack -->
  <rect x="0" y="0" width="320" height="160" fill="#012169"/>
  <path d="M0,0 L320,160 M320,0 L0,160" stroke="#FFFFFF" stroke-width="32"/>
  <path d="M0,0 L320,160 M320,0 L0,160" stroke="#C8102E" stroke-width="16"/>
  <rect x="144" y="0" width="32" height="160" fill="#FFFFFF"/>
  <rect x="0" y="64" width="320" height="32" fill="#FFFFFF"/>
  <rect x="152" y="0" width="16" height="160" fill="#C8102E"/>
  <rect x="0" y="72" width="320" height="16" fill="#C8102E"/>
  
  <!-- Southern Cross -->
  <g fill="#FFFFFF">
    <!-- Large stars -->
    <path d="M400,80 L420,100 L400,120 L380,100 Z"/>
    <path d="M480,40 L500,60 L480,80 L460,60 Z"/>
    <path d="M480,160 L500,180 L480,200 L460,180 Z"/>
    <path d="M560,80 L580,100 L560,120 L540,100 Z"/>
    
    <!-- Small star -->
    <path d="M520,120 L530,130 L520,140 L510,130 Z"/>
  </g>
  
  <!-- Commonwealth Star -->
  <path d="M360,240 L380,260 L360,280 L340,260 Z" fill="#FFFFFF"/>
</svg> 