<?xml version="1.0" encoding="UTF-8"?>
<svg width="640" height="320" viewBox="0 0 640 320" xmlns="http://www.w3.org/2000/svg">
  <!-- Background -->
  <rect width="640" height="320" fill="#FF0000"/>
  
  <!-- White center -->
  <rect x="160" width="320" height="320" fill="#FFFFFF"/>
  
  <!-- Maple leaf -->
  <path d="M320,40 L340,60 L360,40 L380,60 L400,40 L420,60 L440,40 L460,60 L480,40 L500,60 L520,40 L540,60 L560,40 L580,60 L600,40 L620,60 L640,40 L620,80 L640,120 L620,160 L640,200 L620,240 L640,280 L620,320 L580,300 L540,320 L500,300 L460,320 L420,300 L380,320 L340,300 L300,320 L260,300 L220,320 L180,300 L140,320 L100,300 L60,320 L40,280 L20,240 L40,200 L20,160 L40,120 L20,80 L40,40 L60,60 L80,40 L100,60 L120,40 L140,60 L160,40 L180,60 L200,40 L220,60 L240,40 L260,60 L280,40 L300,60 L320,40" fill="#FF0000"/>
</svg> 